<svg width="512" height="512" viewBox="0 0 512 512" fill="none" xmlns="http://www.w3.org/2000/svg">
  <rect width="512" height="512" rx="112" fill="#0E131C"/>
  <svg x="82" y="66" width="348" height="380" viewBox="0 0 444 483" preserveAspectRatio="xMidYMid meet">
    <path d="M331.43 140.144L435.607 41.0905C451.484 25.9937 440.282 -0.725218 418.386 0.0150653L193.237 7.62685C26.0025 13.2807 -32.7617 232.106 109.142 320.777C111.175 322.047 113.788 321.897 115.661 320.402L211.661 243.782C214.422 241.578 213.182 237.139 209.679 236.686L177.24 232.485C160.273 230.288 146.021 218.655 140.47 202.472C130.455 173.275 152.15 142.897 183.017 142.897H324.539C327.104 142.897 329.571 141.911 331.43 140.144Z" fill="#D9F353"/>
    <path d="M111.639 342.65L7.46231 441.704C-8.41537 456.8 2.78671 483.519 24.6835 482.779L249.832 475.167C417.067 469.513 475.831 250.688 333.927 162.017C331.894 160.747 329.281 160.897 327.408 162.392L231.408 239.012C228.647 241.216 229.887 245.655 233.39 246.109L265.829 250.309C282.796 252.506 297.048 264.139 302.599 280.322C312.614 309.519 290.919 339.897 260.052 339.897H118.53C115.965 339.897 113.498 340.883 111.639 342.65Z" fill="#D9F353"/>
  </svg>
</svg>
